<?xml version="1.0" standalone="no"?>
<!DOCTYPE svg PUBLIC "-//W3C//DTD SVG 20010904//EN"
 "http://www.w3.org/TR/2001/REC-SVG-20010904/DTD/svg10.dtd">
<svg version="1.0" xmlns="http://www.w3.org/2000/svg"
 width="300.000000pt" height="230.000000pt" viewBox="0 0 300.000000 230.000000"
 preserveAspectRatio="xMidYMid meet">

<g transform="translate(0.000000,230.000000) scale(0.100000,-0.100000)"
fill="#000000" stroke="none">
<path d="M1495 2216 c-9 -13 -25 -53 -36 -88 -36 -119 -44 -221 -44 -549 0
-288 2 -319 18 -336 9 -11 17 -23 17 -27 0 -7 -234 1 -277 10 -22 4 -23 9 -23
109 0 103 0 104 29 124 56 40 61 105 30 425 -17 175 -26 166 -30 -31 -2 -100
-8 -185 -12 -189 -19 -20 -27 31 -27 181 0 88 -5 167 -10 175 -6 10 -10 -48
-10 -172 0 -114 -4 -189 -10 -193 -6 -3 -12 0 -14 7 -4 12 -15 253 -16 336 0
17 -4 32 -10 32 -6 0 -10 -58 -10 -154 0 -163 -7 -227 -21 -204 -5 7 -9 69
-10 138 0 69 -4 150 -8 180 -6 50 -8 52 -14 25 -10 -43 -27 -265 -27 -365 0
-107 14 -167 45 -196 23 -21 25 -30 25 -119 l0 -95 -31 0 c-32 0 -267 35 -331
49 l-38 9 0 -113 0 -112 -147 4 c-123 4 -151 2 -168 -11 -20 -15 -20 -15 1
-53 11 -21 35 -61 53 -89 l32 -51 -51 -82 c-28 -46 -54 -89 -57 -97 -4 -12 38
-14 276 -14 l281 0 0 115 c0 69 4 115 10 115 5 0 42 -5 81 -12 l71 -12 -7
-283 -7 -283 27 -10 c32 -12 114 -10 122 3 7 11 5 242 -4 415 l-6 134 104 -7
c57 -4 124 -8 149 -8 l45 -2 -4 -267 -3 -266 43 -7 c24 -4 58 -5 74 -2 l30 4
-3 266 -2 267 22 4 c13 3 72 7 131 11 l108 6 -7 -274 -7 -274 24 -6 c34 -9
102 -8 117 2 11 7 13 64 10 292 l-3 283 65 12 c36 7 71 13 78 13 9 1 12 -28
12 -114 l0 -115 285 0 c327 0 302 -12 223 110 -26 41 -48 81 -48 88 0 7 20 43
44 80 25 37 48 79 52 95 l6 27 -166 0 -166 0 0 106 0 107 -37 -6 c-21 -3 -92
-15 -158 -26 -66 -11 -138 -21 -160 -23 l-40 -3 0 98 0 98 51 47 c66 61 79
106 71 245 -10 191 -95 367 -176 367 -32 0 -88 -56 -116 -116 -40 -83 -65
-197 -65 -288 0 -109 10 -139 69 -201 59 -62 63 -75 59 -180 l-3 -80 -138 -9
c-134 -8 -139 -7 -158 13 -11 12 -24 21 -29 21 -9 0 -3 92 7 120 4 8 10 -9 14
-39 4 -29 11 -57 16 -62 10 -10 5 894 -5 936 -11 41 -54 47 -77 11z m574 -562
c-7 -70 -19 -113 -19 -67 0 45 13 143 19 143 4 0 4 -34 0 -76z m-689 -578 c0
-19 -17 -29 -25 -16 -3 5 -15 10 -26 10 -29 0 -23 -33 11 -58 35 -27 39 -63
10 -92 -22 -22 -84 -28 -96 -9 -11 19 12 32 33 18 22 -13 53 -7 53 11 0 5 -16
28 -36 50 -36 40 -36 47 -6 83 19 21 82 24 82 3z m170 -7 c0 -16 -4 -19 -17
-14 -10 4 -28 10 -40 12 -20 5 -23 1 -23 -26 0 -23 5 -31 18 -31 10 0 23 5 30
12 9 9 12 9 11 -2 -1 -29 -15 -54 -23 -42 -4 7 -16 12 -27 12 -15 0 -19 -7
-19 -39 0 -22 5 -42 13 -44 6 -3 -10 -6 -37 -6 -46 -1 -48 0 -33 17 21 23 34
137 17 157 -11 13 -4 15 59 15 66 0 71 -2 71 -21z m150 1 c0 -23 -4 -24 -29
-8 -26 16 -51 3 -51 -27 0 -20 5 -25 24 -25 13 0 27 6 29 13 4 8 5 7 6 -3 0
-19 -17 -59 -18 -42 -1 6 -12 12 -26 12 -22 0 -25 -4 -25 -33 0 -18 5 -38 12
-45 9 -9 1 -12 -37 -12 -47 0 -48 0 -31 19 13 15 18 39 19 95 l2 76 63 0 c55
0 62 -2 62 -20z"/>
<path d="M2735 520 c-13 -14 -16 -30 -12 -59 6 -50 -3 -60 -19 -21 -15 35 -33
39 -41 10 -4 -15 -11 -19 -25 -14 -14 4 -21 0 -25 -15 -6 -24 -9 -25 -27 -9
-7 7 -11 20 -8 30 3 12 -1 18 -12 18 -18 0 -21 -21 -5 -37 14 -14 2 -36 -16
-29 -7 2 -16 -2 -19 -11 -4 -8 -13 -13 -20 -10 -8 3 -20 0 -26 -8 -6 -7 -19
-11 -29 -8 -41 11 -70 -89 -35 -118 14 -11 20 -9 40 15 13 15 21 32 18 38 -4
7 -10 5 -16 -6 -11 -19 -28 -21 -28 -3 0 16 32 47 48 47 6 0 14 -16 18 -36 8
-46 29 -29 29 24 0 32 3 37 26 40 22 3 27 -2 32 -27 8 -36 24 -40 36 -8 6 15
4 24 -5 30 -19 11 -18 37 2 37 8 0 20 -13 25 -30 6 -16 15 -30 19 -30 15 0 19
30 8 55 -8 18 -8 29 -1 36 7 7 14 1 21 -20 12 -35 37 -41 45 -11 3 14 10 18
22 14 11 -5 18 0 22 15 8 30 17 26 32 -14 13 -37 9 -55 -15 -55 -16 0 -19 -16
-4 -25 5 -3 18 3 30 15 19 19 25 38 20 70 -2 17 -72 129 -81 130 -3 0 -14 -9
-24 -20z m35 -67 c0 -7 -4 -13 -8 -13 -12 0 -32 46 -24 55 8 8 32 -24 32 -42z"/>
<path d="M241 496 c-7 -9 -9 -29 -5 -55 6 -37 5 -41 -15 -41 -14 0 -21 6 -21
20 0 20 -24 28 -35 11 -7 -12 43 -51 66 -51 32 0 50 28 43 69 -7 42 13 70 23
32 6 -24 33 -29 33 -6 0 30 -68 47 -89 21z"/>
<path d="M353 465 c-21 -15 -93 -107 -93 -119 0 -15 31 -4 55 20 31 31 44 26
21 -8 -23 -32 -20 -50 6 -46 13 2 24 11 26 23 2 11 11 28 19 37 20 22 7 41
-23 34 -32 -8 -30 4 5 38 18 17 31 24 35 17 10 -16 26 -13 26 4 0 20 -49 20
-77 0z"/>
<path d="M450 420 c-12 -7 -12 -12 -2 -22 9 -9 15 -9 24 0 16 16 -2 34 -22 22z"/>
<path d="M412 373 c-6 -2 -10 -9 -7 -14 3 -4 -2 -20 -11 -34 -10 -15 -13 -30
-8 -34 12 -12 57 6 49 19 -4 6 0 21 9 34 20 31 6 44 -32 29z"/>
<path d="M470 349 c-11 -8 -12 -12 -3 -16 10 -3 9 -13 -2 -40 -9 -20 -13 -38
-11 -40 7 -7 70 24 94 46 28 28 28 43 0 39 -15 -2 -23 -10 -23 -22 0 -11 -5
-21 -12 -23 -8 -3 -10 6 -6 31 6 38 -7 47 -37 25z"/>
<path d="M2332 325 c-17 -27 -19 -35 -8 -35 10 0 16 -13 18 -37 2 -20 8 -38
13 -40 14 -4 39 38 27 46 -17 11 -19 36 -4 54 14 15 13 17 -1 17 -8 0 -17 7
-19 15 -2 9 -11 2 -26 -20z"/>
<path d="M757 320 c15 -16 -11 -98 -39 -122 -19 -17 -19 -18 -2 -18 11 0 30
-3 44 -6 17 -4 21 -3 12 3 -9 7 -10 16 -3 36 6 15 14 27 19 27 17 0 37 -36 34
-63 -3 -25 -2 -26 22 -17 18 6 26 6 26 -1 0 -6 10 -9 23 -7 16 2 22 10 23 28
0 14 4 35 8 47 11 33 -28 41 -67 13 l-30 -23 6 22 c4 18 2 20 -19 15 -25 -6
-32 8 -16 34 9 14 42 6 42 -10 0 -5 5 -6 10 -3 22 14 8 33 -29 39 -22 3 -48 9
-58 12 -14 6 -15 4 -6 -6z m133 -92 c-1 -17 -28 -53 -35 -46 -8 7 16 58 27 58
4 0 8 -6 8 -12z"/>
<path d="M2144 314 c-17 -8 -36 -26 -43 -40 -37 -81 27 -147 90 -94 26 21 19
26 -12 9 -30 -16 -49 5 -49 56 0 49 21 75 44 56 16 -13 32 2 21 19 -8 13 -14
12 -51 -6z"/>
<path d="M569 291 c-16 -16 -29 -39 -29 -51 0 -18 4 -21 24 -16 15 4 26 1 28
-6 3 -7 14 -9 30 -5 19 5 25 12 21 26 -3 10 1 29 7 41 10 18 9 24 -1 31 -25
16 -50 9 -80 -20z m51 3 c0 -16 -23 -44 -36 -44 -12 0 -12 4 2 25 15 23 34 34
34 19z"/>
<path d="M2245 285 c-17 -16 -25 -35 -25 -59 0 -40 18 -57 35 -33 7 10 20 14
32 11 14 -4 23 0 27 13 4 10 2 19 -3 21 -6 2 -11 19 -11 38 0 42 -20 45 -55 9z
m23 -32 c-4 -34 -28 -43 -28 -10 0 25 7 37 22 37 5 0 8 -12 6 -27z"/>
<path d="M1741 274 c-12 -15 -21 -32 -21 -38 0 -6 -13 -18 -29 -27 -20 -12
-30 -27 -35 -53 -9 -49 0 -61 30 -41 13 8 24 11 24 5 0 -15 26 -12 39 4 9 10
9 16 1 21 -7 4 -9 24 -5 53 10 71 15 82 36 82 10 0 19 5 19 10 0 20 -39 9 -59
-16z m-31 -91 c0 -22 -17 -50 -25 -42 -6 7 11 59 20 59 3 0 5 -8 5 -17z"/>
<path d="M1846 259 c-29 -23 -34 -47 -11 -55 10 -4 13 -13 10 -25 -8 -23 27
-59 59 -59 27 0 76 35 76 55 0 8 9 19 20 25 21 11 28 50 9 50 -6 0 -9 -7 -5
-15 9 -24 -10 -17 -42 15 -36 36 -78 39 -116 9z m88 -21 c14 -22 1 -34 -19
-18 -12 10 -21 10 -40 2 -29 -13 -43 1 -24 24 16 19 69 14 83 -8z m16 -57 c0
-24 -14 -41 -35 -41 -23 0 -40 24 -29 41 7 12 64 12 64 0z"/>
<path d="M1343 248 c-2 -5 1 -8 7 -8 15 0 3 -87 -16 -117 -14 -22 -13 -23 19
-23 32 0 33 1 29 35 -4 30 -1 35 16 35 11 0 22 -6 25 -12 2 -7 6 -1 9 13 4 22
2 25 -19 21 -18 -3 -23 0 -23 17 0 16 6 21 24 21 13 0 27 -6 29 -12 3 -7 6 -3
6 9 1 18 -5 21 -50 25 -28 1 -53 0 -56 -4z"/>
<path d="M956 237 c-13 -10 -15 -16 -8 -21 9 -5 8 -16 -3 -42 -13 -32 -13 -34
5 -34 12 0 22 9 26 25 3 13 12 30 20 36 13 10 14 6 8 -29 -5 -34 -4 -42 9 -42
22 0 29 15 33 66 4 48 2 49 -27 33 -16 -8 -23 -7 -32 6 -11 13 -15 14 -31 2z"/>
<path d="M1085 205 c-16 -15 -25 -36 -25 -55 0 -25 4 -30 23 -30 13 0 32 10
43 21 19 22 19 22 -3 10 -27 -14 -36 -1 -23 33 8 22 13 24 32 17 20 -7 23 -15
20 -50 -2 -30 1 -41 12 -41 8 0 18 4 21 10 9 14 25 12 25 -2 0 -7 -9 -28 -21
-47 -15 -25 -23 -31 -32 -22 -15 15 -27 14 -27 -4 0 -24 53 -18 79 9 28 30 65
166 45 166 -8 0 -23 -18 -34 -40 -26 -51 -34 -51 -25 1 7 41 7 42 -19 35 -15
-4 -26 -2 -26 4 0 19 -41 10 -65 -15z"/>
<path d="M1593 209 c-27 -10 -43 -39 -43 -78 0 -26 4 -31 24 -31 31 0 66 43
66 80 0 32 -15 41 -47 29z m17 -39 c0 -25 -10 -50 -21 -50 -10 0 -12 40 -3 64
8 20 24 11 24 -14z"/>
<path d="M1461 184 c-27 -35 -25 -78 5 -82 33 -5 65 28 67 68 2 31 -1 35 -24
38 -19 2 -33 -5 -48 -24z m39 -30 c0 -24 -4 -34 -12 -31 -7 2 -13 9 -12 15 1
7 2 21 3 32 2 35 21 21 21 -16z"/>
</g>
</svg>
